<mxfile host="app.diagrams.net" modified="2020-12-08T02:37:58.163Z" agent="5.0 (Macintosh; Intel Mac OS X 10_15_7) AppleWebKit/537.36 (KHTML, like Gecko) Chrome/86.0.4240.198 Safari/537.36" etag="8qH81h8oVOurxf671xm-" version="13.11.0" type="github">
  <diagram id="x7Jybvqh-h3mTjfjn4rV" name="Page-1">
    <mxGraphModel dx="1426" dy="794" grid="1" gridSize="10" guides="1" tooltips="1" connect="1" arrows="1" fold="1" page="1" pageScale="1" pageWidth="850" pageHeight="1100" math="0" shadow="0">
      <root>
        <mxCell id="0" />
        <mxCell id="1" parent="0" />
        <mxCell id="iRW3X6CsW8BD8qZnVJKV-1" value="Pathfinding" style="html=1;" vertex="1" parent="1">
          <mxGeometry x="60" y="200" width="290" height="170" as="geometry" />
        </mxCell>
        <mxCell id="iRW3X6CsW8BD8qZnVJKV-2" value="Skills Suggestions" style="html=1;" vertex="1" parent="1">
          <mxGeometry x="470" y="200" width="310" height="170" as="geometry" />
        </mxCell>
      </root>
    </mxGraphModel>
  </diagram>
</mxfile>
